<svg xmlns="http://www.w3.org/2000/svg" width="84.225" height="58.732" viewBox="0 0 84.225 58.732">
  <g id="ambulance_wbsswdgpp35b" transform="translate(0 0)">
    <g id="Grupo_511" data-name="Grupo 511" transform="translate(0 0)">
      <path id="Trazado_299" data-name="Trazado 299" d="M80.845,87.03H28.451a3.38,3.38,0,0,0-3.38,3.38V96.9l-4.2.016a3.652,3.652,0,0,0-3.112,2.092l-4.235,10.276C11.654,109.283,0,110.8,0,112.663v15.493c0,1.41,4.076,2.617,6.875,3.125a12.112,12.112,0,0,1,22.148.255H56.279a12.12,12.12,0,0,1,22.272,0h2.294a3.38,3.38,0,0,0,3.38-3.38V90.41A3.379,3.379,0,0,0,80.845,87.03Zm-11.078,21.3a3.483,3.483,0,0,1-3.482,3.482H57.992V120.1a3.482,3.482,0,0,1-3.482,3.482h-.97a3.482,3.482,0,0,1-3.482-3.482v-8.293H41.766a3.482,3.482,0,0,1-3.482-3.482v-.97a3.482,3.482,0,0,1,3.482-3.482h8.292V95.584A3.482,3.482,0,0,1,53.54,92.1h.97a3.482,3.482,0,0,1,3.482,3.482v8.293h8.293a3.482,3.482,0,0,1,3.482,3.482Z" transform="translate(0 -87.03)" fill="#fff"/>
      <path id="Trazado_300" data-name="Trazado 300" d="M76.568,368.618a9.437,9.437,0,1,0-9.437,9.437A9.376,9.376,0,0,0,76.568,368.618Z" transform="translate(-49.244 -319.322)" fill="#fff"/>
      <path id="Trazado_301" data-name="Trazado 301" d="M414.736,368.618a9.437,9.437,0,1,0-9.437,9.437A9.377,9.377,0,0,0,414.736,368.618Z" transform="translate(-337.884 -319.322)" fill="#fff"/>
    </g>
  </g>
</svg>
