<svg id="doctor_439ltwbs9tgy" xmlns="http://www.w3.org/2000/svg" width="51.327" height="59.252" viewBox="0 0 51.327 59.252">
  <g id="Grupo_509" data-name="Grupo 509" transform="translate(0)">
    <g id="Grupo_508" data-name="Grupo 508">
      <circle id="Elipse_78" data-name="Elipse 78" cx="14.516" cy="14.516" r="14.516" transform="translate(11.188)" fill="#fbf4f4"/>
      <circle id="Elipse_79" data-name="Elipse 79" cx="2.168" cy="2.168" r="2.168" transform="translate(38.051 44.54)" fill="#fbf4f4"/>
      <path id="Trazado_291" data-name="Trazado 291" d="M122.326,298.926a5.28,5.28,0,0,0-3.594-1.58,5.1,5.1,0,0,0-3.636,1.636A18,18,0,0,1,122.326,298.926Z" transform="translate(-107.544 -260.385)" fill="#fbf4f4"/>
      <path id="Trazado_292" data-name="Trazado 292" d="M55.389,250.248c-1.424-10.922-4.235-18.152-12.107-23.214a45.635,45.635,0,0,1-.141,12.935,5.3,5.3,0,0,1,3.024,5.006c0,2.881-1.965,5.272-4.436,5.272-2.424,0-4.436-2.335-4.436-5.272a5.1,5.1,0,0,1,3.436-5.1c1.188-5.44.224-12.446-.047-14.292a6.687,6.687,0,0,0-.965-.434,13.521,13.521,0,0,1-10.2,4.95,13.381,13.381,0,0,1-10.061-4.839,18.184,18.184,0,0,0-1.047,7.286c3.883.867,6.86,6.2,6.86,12.67a18.948,18.948,0,0,1-1.188,6.74,3.344,3.344,0,0,1-3.024,2.07,2.7,2.7,0,0,1,0-5.314,4.324,4.324,0,0,1,1.424.322,17.141,17.141,0,0,0-.224-8.586,10.965,10.965,0,0,0-9.885,0,16.856,16.856,0,0,0-.224,8.586,3.408,3.408,0,0,1,1.424-.378,2.7,2.7,0,0,1,0,5.314,3.453,3.453,0,0,1-2.977-1.958h0a18.567,18.567,0,0,1-1.236-6.852c0-6.363,2.93-11.635,6.719-12.614a24.732,24.732,0,0,1,.506-6.027C8.239,231.509,6,237.354,4.544,248.654c-.365,2.769-.874,8.88,1.467,8.88H53.32C55.7,257.548,55.754,253.031,55.389,250.248Z" transform="translate(-4.228 -198.282)" fill="#fbf4f4"/>
    </g>
  </g>
</svg>
