<svg xmlns="http://www.w3.org/2000/svg" width="70.165" height="57.466" viewBox="0 0 70.165 57.466">
  <g id="conversation_urecguwy3hbt" transform="translate(0 0)">
    <path id="Trazado_288" data-name="Trazado 288" d="M111.006,96.11a.005.005,0,0,0,0-.011" transform="translate(-92.864 -86.743)" fill="#fff" stroke="#e71d73" stroke-linecap="round" stroke-linejoin="round" stroke-width="1"/>
    <path id="Trazado_289" data-name="Trazado 289" d="M188.229,64.024c.234-4.978.308-9.969.157-14.951-.144-4.79-.423-8.329-5.665-9.368-8.827-1.749-19.474-.306-28.454-.146-4.556.081-10.472-1.384-11.99,3.819-.976,3.345-.309,7.708-.392,11.207-.105,4.487-.9,9.956-.173,14.4.6,3.663,2.124,4.554,5.648,5.291A85.634,85.634,0,0,0,172.3,75.452c1.439.954,2.778,2.138,4.162,3.114,2.566,1.808,5.17,3.556,7.846,5.2a1.819,1.819,0,0,0,2.469-2.469,54.07,54.07,0,0,0-3.9-6.374,7.1,7.1,0,0,0,3.99-2.332C188.47,70.486,188.121,66.33,188.229,64.024Z" transform="translate(-118.3 -38.849)" fill="#fff"/>
    <path id="Trazado_290" data-name="Trazado 290" d="M39.446,149.825c-5.257-.876-18.36,1.721-20.716-4.841-.652-1.816.006-6.394.047-8.32.079-3.7.262-7.39.488-11.082a1.792,1.792,0,0,0-1.772-1.772c-5.6-.03-15.087-2.68-16.772,4.389-1.09,4.57-.664,10.126-.511,14.753.1,2.956-.307,7.738,1.351,10.5a5.8,5.8,0,0,0,3.987,2.8c.159.035.329.052.492.081-.108.567-.207,1.138-.317,1.7-.468,2.388-.912,4.78-1.367,7.17-.235,1.232,1.293,2.416,2.274,1.324,2.847-3.169,5.8-6.3,8.516-9.595a83.544,83.544,0,0,0,19.75-.464c.112-.015.227-.026.336-.045.164-.025.34-.042.5-.067a1.277,1.277,0,0,0,.33-.121,5.018,5.018,0,0,0,4-4.1,1.842,1.842,0,0,0,0-.312A1.266,1.266,0,0,0,39.446,149.825Z" transform="translate(0 -109.498)" fill="#fff"/>
  </g>
</svg>
