<svg xmlns="http://www.w3.org/2000/svg" width="59.863" height="56.162" viewBox="0 0 59.863 56.162">
  <g id="stethoscope_b34a91yk2674" transform="translate(0 0)">
    <path id="Trazado_287" data-name="Trazado 287" d="M56.663,46.993V40.629a8.538,8.538,0,1,0-17.076,0V56.667a9.674,9.674,0,1,1-19.348,0V51.024c8.5-1.136,15.183-7.878,15.4-16V20a2.56,2.56,0,0,0-2.553-2.553H27.214a2.547,2.547,0,0,0-5.081.257v4.58a2.56,2.56,0,0,0,2.553,2.553,2.607,2.607,0,0,0,2.516-2.3h3.347V35.023c0,6.107-5.729,11.078-12.74,11.078S5.069,41.13,5.069,35.023V22.54h3.2a2.564,2.564,0,0,0,2.528,2.3,2.651,2.651,0,0,0,2.553-2.553V17.7a2.547,2.547,0,0,0-5.081-.257H2.528A2.552,2.552,0,0,0,0,19.987V35.011c0,8.123,6.559,14.877,15.158,16v5.655A14.727,14.727,0,0,0,29.8,71.312,14.957,14.957,0,0,0,44.7,56.667V40.617a3.432,3.432,0,1,1,6.865,0V46.9a5.92,5.92,0,0,0-3.432,5.313,5.863,5.863,0,1,0,8.526-5.216ZM53.988,53.1a.892.892,0,0,1,0-1.783.957.957,0,0,1,.892.892A.867.867,0,0,1,53.988,53.1Z" transform="translate(0 -15.15)" fill="#fff"/>
  </g>
</svg>
